<?xml version="1.0" encoding="UTF-8"?>
<svg version="1.1" xmlns="http://www.w3.org/2000/svg" width="626" height="122">
<path d="M0 0 C206.58 0 413.16 0 626 0 C626 40.26 626 80.52 626 122 C419.42 122 212.84 122 0 122 C0 81.74 0 41.48 0 0 Z " fill="#280A4A" transform="translate(0,0)"/>
<path d="M0 0 C3 0.125 3 0.125 4 1.125 C4.28743526 5.34071713 3.79760213 8.30509548 2 12.125 C2.89138672 12.12886719 2.89138672 12.12886719 3.80078125 12.1328125 C13.69961429 12.59465541 21.81908253 17.00760045 28.50390625 24.26953125 C36.62934691 34.34677488 38.176613 44.47114403 37 57.125 C35.04056091 66.85179646 29.66509015 74.81421691 21.5625 80.5 C14.6686557 84.97380408 7.90738315 86.71074514 -0.25 86.6875 C-1.49354248 86.6860498 -1.49354248 86.6860498 -2.76220703 86.68457031 C-12.48995086 86.40841814 -19.72734121 82.4271722 -27 76.125 C-35.57697795 65.75190196 -38.18461881 55.22950999 -37.20556641 42.05322266 C-36.11765567 31.84856826 -29.21099179 24.84503065 -22 18.125 C-15.62620756 13.86306382 -9.67137375 11.64553914 -2 12.125 C-2.495 11.073125 -2.495 11.073125 -3 10 C-4.09758996 6.84442887 -4.22620981 4.44274392 -4 1.125 C-3 0.125 -3 0.125 0 0 Z " fill="#341451" transform="translate(64,12.875)"/>
<path d="M0 0 C3 0.125 3 0.125 4 1.125 C4.28743526 5.34071713 3.79760213 8.30509548 2 12.125 C2.89138672 12.12886719 2.89138672 12.12886719 3.80078125 12.1328125 C13.69961429 12.59465541 21.81908253 17.00760045 28.50390625 24.26953125 C36.62934691 34.34677488 38.176613 44.47114403 37 57.125 C35.04056091 66.85179646 29.66509015 74.81421691 21.5625 80.5 C14.6686557 84.97380408 7.90738315 86.71074514 -0.25 86.6875 C-1.49354248 86.6860498 -1.49354248 86.6860498 -2.76220703 86.68457031 C-12.48995086 86.40841814 -19.72734121 82.4271722 -27 76.125 C-35.57697795 65.75190196 -38.18461881 55.22950999 -37.20556641 42.05322266 C-36.11765567 31.84856826 -29.21099179 24.84503065 -22 18.125 C-15.62620756 13.86306382 -9.67137375 11.64553914 -2 12.125 C-2.495 11.073125 -2.495 11.073125 -3 10 C-4.09758996 6.84442887 -4.22620981 4.44274392 -4 1.125 C-3 0.125 -3 0.125 0 0 Z M-23 29.125 C-29.12735129 37.66333082 -31.00247274 44.62784289 -30 55.125 C-27.32615203 65.18490336 -22.36081353 71.77246207 -13.5 77.0625 C-5.88661479 80.53364827 2.46346229 80.56558646 10.3828125 78.05078125 C18.95896948 74.12810293 24.54891847 68.83448103 28.4375 60.25 C31.47045785 51.70019642 30.56283759 43.38861571 27 35.125 C22.67602235 27.10494904 15.80510949 23.01272158 7.5 19.75 C-4.35291728 17.63340763 -14.33795167 20.51754441 -23 29.125 Z " fill="#A77194" transform="translate(64,12.875)"/>
<path d="M0 0 C1.60488281 0.02707031 1.60488281 0.02707031 3.2421875 0.0546875 C5.87072178 0.10162561 8.49738913 0.16727067 11.125 0.25 C11.21235463 4.79154478 11.26551247 9.33287232 11.3125 13.875 C11.33763672 15.16019531 11.36277344 16.44539063 11.38867188 17.76953125 C11.39833984 19.01347656 11.40800781 20.25742188 11.41796875 21.5390625 C11.4336792 22.68068848 11.44938965 23.82231445 11.46557617 24.99853516 C10.94246888 29.99261606 9.27394076 33.21315102 5.5625 36.5625 C1.51461316 39.3648832 -1.44826811 39.40228257 -6.25 39.375 C-6.92289062 39.37886719 -7.59578125 39.38273437 -8.2890625 39.38671875 C-11.62780945 39.38014641 -14.68353085 39.28109003 -17.875 38.25 C-17.545 36.6 -17.215 34.95 -16.875 33.25 C-12.50291565 31.88372364 -8.2758772 32.31546272 -3.75 32.5078125 C-0.47579215 32.21420147 0.79457411 31.52053176 3.125 29.25 C3.92123822 27.15584196 3.92123822 27.15584196 4.125 25.25 C3.3 25.58 2.475 25.91 1.625 26.25 C-3.98204909 27.85201403 -8.15277302 27.79537188 -13.625 26.0625 C-17.64943253 23.81810494 -19.82782311 21.34435378 -21.875 17.25 C-22.27067146 13.13501683 -22.14288111 10.77545911 -20.25 7.0625 C-14.09946216 -0.22103166 -9.17915139 -0.29391371 0 0 Z " fill="#F5F4F6" transform="translate(331.875,46.75)"/>
<path d="M0 0 C-0.30492255 2.33987937 -0.64096673 4.66808663 -1 7 C-1.11617676 7.79776855 -1.23235352 8.59553711 -1.35205078 9.41748047 C-2.45992691 16.01352763 -3.85168583 22.61714934 -8 28 C-15.12204502 32.71393841 -23.73925673 34.33026687 -32 36 C-33.33531936 36.32528619 -34.66952944 36.6554177 -36 37 C-35.46467308 30.3418714 -34.20740059 24.48508405 -32 18.1875 C-31.74605469 17.35541016 -31.49210937 16.52332031 -31.23046875 15.66601562 C-30.02152925 12.22412623 -29.08156436 9.74483209 -26.0168457 7.63427734 C-23.70779159 6.58378514 -21.41869513 5.76183127 -19 5 C-17.6599319 4.50581628 -16.32007434 4.01106111 -14.98046875 3.515625 C-13.10294922 2.88914063 -13.10294922 2.88914063 -11.1875 2.25 C-10.22553711 1.91935547 -10.22553711 1.91935547 -9.24414062 1.58203125 C-5.93873683 0.48136939 -3.53371712 0 0 0 Z " fill="#EBA8BC" transform="translate(82,44)"/>
<path d="M0 0 C6.18148914 5.87241468 6.18148914 5.87241468 6.80078125 10.73828125 C6.70527162 15.57988502 5.69971031 18.92121795 2.375 22.5 C-2.63125154 26.33631232 -7.81549149 26.09345218 -13.9140625 26.01171875 C-18.87705388 25.13049043 -22.062155 23.00455767 -25.375 19.25 C-27.06250769 14.93748035 -27.16206212 10.94172397 -26.5 6.375 C-24.43802843 2.49849346 -21.83073881 0.4384148 -17.69140625 -1.1171875 C-11.63371955 -2.52092952 -5.66224073 -2.62889748 0 0 Z " fill="#F7F6F8" transform="translate(259.5,48.625)"/>
<path d="M0 0 C1.28648437 -0.01675781 2.57296875 -0.03351562 3.8984375 -0.05078125 C8.70685467 0.41796382 12.16404402 1.70041064 15.4375 5.3125 C17.24955413 8.36438064 17.74880634 10.84625659 17.72265625 14.32421875 C17.71943359 15.08154297 17.71621094 15.83886719 17.71289062 16.61914062 C17.70451172 17.40482422 17.69613281 18.19050781 17.6875 19 C17.68298828 19.79728516 17.67847656 20.59457031 17.67382812 21.41601562 C17.6620585 23.38154257 17.64412348 25.34703085 17.625 27.3125 C15.315 27.3125 13.005 27.3125 10.625 27.3125 C10.625 26.6525 10.625 25.9925 10.625 25.3125 C9.58859375 25.79783203 9.58859375 25.79783203 8.53125 26.29296875 C5.23947053 27.44774622 2.60736195 27.61279546 -0.875 27.625 C-2.53015625 27.65013672 -2.53015625 27.65013672 -4.21875 27.67578125 C-7.70930052 27.27402234 -9.57531378 26.39704898 -12.375 24.3125 C-13.92086876 21.22076248 -13.66859521 18.71820448 -13.375 15.3125 C-11.15636971 12.40532927 -9.85555071 11.47268357 -6.375 10.3125 C-4.04324086 10.21721177 -1.70870026 10.18263812 0.625 10.1875 C2.48125 10.18363281 2.48125 10.18363281 4.375 10.1796875 C7.625 10.3125 7.625 10.3125 10.625 11.3125 C9.14113469 9.15617186 9.14113469 9.15617186 6.625 7.3125 C3.73050051 7.0218876 1.24550065 6.93063955 -1.625 7.0625 C-2.37007813 7.08054687 -3.11515625 7.09859375 -3.8828125 7.1171875 C-5.71409701 7.16414351 -7.54471649 7.23588348 -9.375 7.3125 C-10.035 5.6625 -10.695 4.0125 -11.375 2.3125 C-7.65999561 -0.05416524 -4.3335868 0.01297481 0 0 Z " fill="#F6F5F8" transform="translate(503.375,46.6875)"/>
<path d="M0 0 C0.64324219 0.4125 1.28648438 0.825 1.94921875 1.25 C2.64402344 1.6625 3.33882812 2.075 4.0546875 2.5 C10.86594421 6.99824083 14.42999376 13.31382616 17.32421875 20.8125 C19.137354 30.78474388 17.75210543 40.54179738 12.03125 49.12890625 C6.41156034 55.80290937 -0.36879008 60.58359095 -9.05078125 62.25 C-20.21756035 62.99560792 -28.27271028 61.38907747 -37.05078125 54.25 C-44.78879403 46.87119865 -48.09400887 39.21420633 -48.36328125 28.5 C-48.31218393 22.55811108 -46.9976731 18.35862567 -44.05078125 13.25 C-43.45265625 12.198125 -42.85453125 11.14625 -42.23828125 10.0625 C-32.55781328 -2.38381596 -14.4642535 -7.93467621 0 0 Z M-38.05078125 9.25 C-44.17813254 17.78833082 -46.05325399 24.75284289 -45.05078125 35.25 C-42.37693328 45.30990336 -37.41159478 51.89746207 -28.55078125 57.1875 C-20.93739604 60.65864827 -12.58731896 60.69058646 -4.66796875 58.17578125 C3.90818823 54.25310293 9.49813722 48.95948103 13.38671875 40.375 C16.4196766 31.82519642 15.51205634 23.51361571 11.94921875 15.25 C7.6252411 7.22994904 0.75432824 3.13772158 -7.55078125 -0.125 C-19.40369853 -2.24159237 -29.38873292 0.64254441 -38.05078125 9.25 Z " fill="#F0ABBE" transform="translate(79.05078125,32.75)"/>
<path d="M0 0 C2.31 0 4.62 0 7 0 C7.33 3.96 7.66 7.92 8 12 C8.66 11.67 9.32 11.34 10 11 C15.8619808 10.50610383 21.20083684 10.19347858 26.625 12.625 C30.39371292 16.39371292 32.16207211 19.97883057 32.29296875 25.3046875 C32.27326553 26.82840321 32.23783682 28.35198852 32.1875 29.875 C32.16719727 31.050625 32.16719727 31.050625 32.14648438 32.25 C32.11141789 34.16696782 32.05762072 36.08357751 32 38 C29.69 38 27.38 38 25 38 C24.96261719 36.89140625 24.92523438 35.7828125 24.88671875 34.640625 C24.82104552 33.17705026 24.75459865 31.71351009 24.6875 30.25 C24.66494141 29.52039063 24.64238281 28.79078125 24.61914062 28.0390625 C24.46225028 24.9012557 24.16877069 22.35243291 22.8046875 19.50390625 C20.29685814 17.41404845 18.66070588 17.56303533 15.4375 17.6875 C14.46683594 17.71199219 13.49617187 17.73648438 12.49609375 17.76171875 C10.00279586 17.84852182 10.00279586 17.84852182 8 19 C7.67 25.27 7.34 31.54 7 38 C4.69 38 2.38 38 0 38 C0 25.46 0 12.92 0 0 Z " fill="#F4F2F5" transform="translate(195,36)"/>
<path d="M0 0 C2.31 0 4.62 0 7 0 C7.33 3.96 7.66 7.92 8 12 C8.66 11.67 9.32 11.34 10 11 C17.36330208 10.37435995 22.85803131 10.71499035 28.8125 15.4375 C31.01768979 18.33906551 31.12452704 21.5624312 31.09765625 25.109375 C31.09443359 25.86347656 31.09121094 26.61757813 31.08789062 27.39453125 C31.07951172 28.17183594 31.07113281 28.94914062 31.0625 29.75 C31.05798828 30.54277344 31.05347656 31.33554688 31.04882812 32.15234375 C31.03708565 34.10159508 31.01915146 36.05080738 31 38 C28.69 38 26.38 38 24 38 C23.96261719 36.80761719 23.92523438 35.61523438 23.88671875 34.38671875 C23.82105968 32.820281 23.75461232 31.25387616 23.6875 29.6875 C23.66494141 28.90181641 23.64238281 28.11613281 23.61914062 27.30664062 C23.5659668 26.1706543 23.5659668 26.1706543 23.51171875 25.01171875 C23.48553467 24.31522217 23.45935059 23.61872559 23.43237305 22.90112305 C22.87698765 20.45912075 21.95137545 19.53078488 20 18 C17.55685965 17.60028054 17.55685965 17.60028054 14.9375 17.75 C14.05964844 17.76546875 13.18179687 17.7809375 12.27734375 17.796875 C9.96962973 17.86269209 9.96962973 17.86269209 8 19 C7.67 25.27 7.34 31.54 7 38 C4.69 38 2.38 38 0 38 C0 25.46 0 12.92 0 0 Z " fill="#F3F1F5" transform="translate(351,36)"/>
<path d="M0 0 C0.70253906 -0.00257812 1.40507813 -0.00515625 2.12890625 -0.0078125 C6.30076513 0.07105062 8.85192979 0.55524767 11.875 3.5 C11.215 4.82 10.555 6.14 9.875 7.5 C9.25625 7.335 8.6375 7.17 8 7 C3.62029271 6.29924683 -0.69928989 6.42265749 -5.125 6.5 C-5.455 7.82 -5.785 9.14 -6.125 10.5 C-5.02800781 10.45359375 -3.93101562 10.4071875 -2.80078125 10.359375 C-1.3463815 10.3218421 0.10804783 10.28544357 1.5625 10.25 C2.28373047 10.21648438 3.00496094 10.18296875 3.74804688 10.1484375 C7.62234719 10.07767402 9.47038695 10.25279516 12.8671875 12.328125 C14.875 14.5 14.875 14.5 15.3125 17.5 C14.71815525 21.57550685 14.11666872 23.53924113 10.8203125 26.08984375 C6.91575569 27.95926684 3.70758646 27.94177807 -0.5625 27.875 C-1.30048828 27.88660156 -2.03847656 27.89820312 -2.79882812 27.91015625 C-7.63913156 27.8843413 -10.8785736 27.04381804 -15.125 24.5 C-14.465 22.85 -13.805 21.2 -13.125 19.5 C-12.361875 19.83 -11.59875 20.16 -10.8125 20.5 C-5.05935543 22.0601748 1.1735257 22.40049143 6.875 20.5 C6.875 19.51 6.875 18.52 6.875 17.5 C5.77800781 17.54640625 4.68101562 17.5928125 3.55078125 17.640625 C2.0963815 17.6781579 0.64195217 17.71455643 -0.8125 17.75 C-1.53373047 17.78351563 -2.25496094 17.81703125 -2.99804688 17.8515625 C-6.82842328 17.92152371 -8.72532622 17.73760134 -12.1015625 15.73046875 C-14.49787757 13.08897087 -14.7534881 11.12476247 -14.88671875 7.59765625 C-12.41630507 0.79451704 -6.46025508 -0.26368388 0 0 Z " fill="#F7F6F8" transform="translate(575.125,46.5)"/>
<path d="M0 0 C2.31 0 4.62 0 7 0 C7.04898437 1.27617188 7.09796875 2.55234375 7.1484375 3.8671875 C7.22346191 5.53648072 7.29900988 7.20575046 7.375 8.875 C7.4059375 9.71675781 7.436875 10.55851562 7.46875 11.42578125 C7.50742187 12.23144531 7.54609375 13.03710938 7.5859375 13.8671875 C7.6173584 14.61081543 7.6487793 15.35444336 7.68115234 16.12060547 C7.85419551 18.24010974 7.85419551 18.24010974 10 20 C12.37098906 20.28108663 12.37098906 20.28108663 15 20.1875 C15.886875 20.18105469 16.77375 20.17460938 17.6875 20.16796875 C20.02606345 20.14581927 20.02606345 20.14581927 22 19 C22.33 12.73 22.66 6.46 23 0 C25.31 0 27.62 0 30 0 C30 8.91 30 17.82 30 27 C28.02 27 26.04 27 24 27 C24 26.34 24 25.68 24 25 C23.20722656 25.48146484 23.20722656 25.48146484 22.3984375 25.97265625 C17.55850104 28.04578864 12.14437434 27.64464244 7 27 C3.71441834 25.39305188 1.65657984 23.31315967 0 20 C-0.08372659 18.47851674 -0.10730027 16.95344222 -0.09765625 15.4296875 C-0.09443359 14.53378906 -0.09121094 13.63789062 -0.08789062 12.71484375 C-0.07951172 11.77769531 -0.07113281 10.84054688 -0.0625 9.875 C-0.05798828 8.93011719 -0.05347656 7.98523437 -0.04882812 7.01171875 C-0.03702357 4.67441613 -0.02055759 2.33723939 0 0 Z " fill="#F3F2F5" transform="translate(273,47)"/>
<path d="M0 0 C11.22 0 22.44 0 34 0 C34 2.31 34 4.62 34 7 C29.38 7 24.76 7 20 7 C20 16.57 20 26.14 20 36 C17.69 36 15.38 36 13 36 C13 26.43 13 16.86 13 7 C8.71 7 4.42 7 0 7 C0 4.69 0 2.38 0 0 Z " fill="#EFECF1" transform="translate(427,38)"/>
<path d="M0 0 C10.89 0 21.78 0 33 0 C33 2.31 33 4.62 33 7 C28.71 7 24.42 7 20 7 C20 16.57 20 26.14 20 36 C17.69 36 15.38 36 13 36 C13 26.43 13 16.86 13 7 C8.71 7 4.42 7 0 7 C0 4.69 0 2.38 0 0 Z " fill="#F3F2F5" transform="translate(155,38)"/>
<path d="M0 0 C3 0.125 3 0.125 4 1.125 C4.28743526 5.34071713 3.79760213 8.30509548 2 12.125 C2.89138672 12.12886719 2.89138672 12.12886719 3.80078125 12.1328125 C13.69961429 12.59465541 21.81908253 17.00760045 28.50390625 24.26953125 C34.49855853 31.70415223 37.39239495 38.6419968 37.375 48.3125 C37.37693359 49.42709595 37.37693359 49.42709595 37.37890625 50.56420898 C37.25717051 56.95602702 35.79280515 62.3523715 33 68.125 C32.01 67.795 31.02 67.465 30 67.125 C30.2165625 66.58875 30.433125 66.0525 30.65625 65.5 C33.83396404 56.55532345 35.10110623 45.12066232 31.375 36.125 C30.2793607 34.06287972 30.2793607 34.06287972 29 32.125 C28.36384766 31.08279297 28.36384766 31.08279297 27.71484375 30.01953125 C22.90525288 22.87882949 16.27529195 18.40534853 8 16.125 C4.67062877 15.81262431 1.36464737 15.68712595 -1.9765625 15.56640625 C-5.21654406 15.09338569 -6.61550063 14.30594455 -9 12.125 C-6.69 12.125 -4.38 12.125 -2 12.125 C-2.495 11.073125 -2.495 11.073125 -3 10 C-4.09758996 6.84442887 -4.22620981 4.44274392 -4 1.125 C-3 0.125 -3 0.125 0 0 Z " fill="#E7A4B9" transform="translate(64,12.875)"/>
<path d="M0 0 C2.31 0 4.62 0 7 0 C7 2.64 7 5.28 7 8 C8.98 8 10.96 8 13 8 C13 9.65 13 11.3 13 13 C11.02 13 9.04 13 7 13 C7 20.26 7 27.52 7 35 C4.69 35 2.38 35 0 35 C0 27.74 0 20.48 0 13 C-2.31 13 -4.62 13 -7 13 C-7 11.35 -7 9.7 -7 8 C-4.69 8 -2.38 8 0 8 C0 5.36 0 2.72 0 0 Z " fill="#F2F0F4" transform="translate(394,39)"/>
<path d="M0 0 C3.1875 2.0625 3.1875 2.0625 5 5 C5.1875 8.5625 5.1875 8.5625 4 12 C0.9863566 14.73330448 -1.03407728 15.86201104 -5.0625 16.4375 C-8.3871874 15.94233379 -10.31335684 14.99579206 -13 13 C-14.54586876 9.90826248 -14.29359521 7.40570448 -14 4 C-10.99333462 -1.32999771 -5.46048256 -1.00402421 0 0 Z " fill="#2E114E" transform="translate(254,53)"/>
<path d="M0 0 C0.845625 0.00386719 1.69125 0.00773437 2.5625 0.01171875 C5.11537729 0.32673726 6.79013935 1.02853004 9 2.3125 C9.28529317 5.69163907 9.4127 8.9403066 9 12.3125 C6.22233969 15.35896615 3.39012069 15.52171333 -0.5625 15.75 C-3.60869564 15.62307518 -4.87560836 15.38531462 -7.5625 13.8125 C-9.74510377 10.01666736 -9.55302077 7.66753854 -9 3.3125 C-6.13793405 0.43742466 -3.99042597 -0.07907856 0 0 Z " fill="#2B0D4C" transform="translate(327,52.6875)"/>
<path d="M0 0 C0.66 0.33 1.32 0.66 2 1 C2.625 4.0625 2.625 4.0625 3 7 C2.37351562 7.19335938 1.74703125 7.38671875 1.1015625 7.5859375 C0.28429687 7.84632812 -0.53296875 8.10671875 -1.375 8.375 C-2.18710937 8.63023438 -2.99921875 8.88546875 -3.8359375 9.1484375 C-6.16459185 9.89854283 -6.16459185 9.89854283 -8 12 C-8.3063859 14.73434962 -8.5113336 17.38279821 -8.625 20.125 C-8.66367187 20.87910156 -8.70234375 21.63320312 -8.7421875 22.41015625 C-8.83651031 24.27303184 -8.91934662 26.13648255 -9 28 C-10.98 28 -12.96 28 -15 28 C-15 19.09 -15 10.18 -15 1 C-13.02 1 -11.04 1 -9 1 C-8.67 1.99 -8.34 2.98 -8 4 C-7.44570313 3.69964844 -6.89140625 3.39929687 -6.3203125 3.08984375 C-5.59585937 2.70957031 -4.87140625 2.32929687 -4.125 1.9375 C-3.40570313 1.55464844 -2.68640625 1.17179687 -1.9453125 0.77734375 C-1.30335938 0.52082031 -0.66140625 0.26429687 0 0 Z " fill="#F8F7F9" transform="translate(483,46)"/>
<path d="M0 0 C1.98 0 3.96 0 6 0 C6 12.21 6 24.42 6 37 C4.02 37 2.04 37 0 37 C0 24.79 0 12.58 0 0 Z " fill="#FFFFFF" transform="translate(546,37)"/>
<path d="M0 0 C2.31 0 4.62 0 7 0 C7 8.91 7 17.82 7 27 C4.69 27 2.38 27 0 27 C0 18.09 0 9.18 0 0 Z " fill="#F5F3F6" transform="translate(530,47)"/>
<path d="M0 0 C1.49609375 1.33984375 1.49609375 1.33984375 3 3 C3.04063832 4.66617115 3.042721 6.33388095 3 8 C5.76223278 10.76223278 8.20706617 10.57856291 12 11 C12 11.99 12 12.98 12 14 C9.56427941 14.83887056 7.12666783 15.67126529 4.6875 16.5 C3.99720703 16.73847656 3.30691406 16.97695312 2.59570312 17.22265625 C-0.38931489 18.23208263 -2.82658914 19 -6 19 C-4.70024676 12.28460827 -2.70071112 6.27980887 0 0 Z " fill="#31114E" transform="translate(56,57)"/>
<path d="M0 0 C-1.77910928 6.75052102 -3.70438191 13.40620337 -6 20 C-6.99 19.34 -7.98 18.68 -9 18 C-9 16 -9 14 -9 12 C-9.95548981 10.04374022 -9.95548981 10.04374022 -12 9 C-15.61023099 8.26958147 -15.61023099 8.26958147 -19 8 C-18.67 7.01 -18.34 6.02 -18 5 C-15.52665762 3.95222369 -13.17972108 3.09838539 -10.625 2.3125 C-9.93921875 2.08755859 -9.2534375 1.86261719 -8.546875 1.63085938 C-5.59234644 0.68529527 -3.1196449 0 0 0 Z " fill="#31114F" transform="translate(78,48)"/>
<path d="M0 0 C3.8513331 0.02758835 6.78988195 0.34210371 10.25 2.1875 C10.25 2.8475 10.25 3.5075 10.25 4.1875 C4.91553 6.854735 1.22496094 7.69385262 -4.75 7.1875 C-5.41 6.5275 -6.07 5.8675 -6.75 5.1875 C-6.00284119 0.25625185 -4.76809559 0.03526698 0 0 Z " fill="#3B205A" transform="translate(503.75,61.8125)"/>
<path d="M0 0 C-2.14753655 2.39762941 -3.90670958 3.55957647 -6.94140625 4.60546875 C-7.68970703 4.86650391 -8.43800781 5.12753906 -9.20898438 5.39648438 C-9.98564453 5.65751953 -10.76230469 5.91855469 -11.5625 6.1875 C-12.34302734 6.46013672 -13.12355469 6.73277344 -13.92773438 7.01367188 C-19.69754464 9 -19.69754464 9 -22 9 C-22.25 6.1875 -22.25 6.1875 -22 3 C-20 1.125 -20 1.125 -18 0 C-18 1.32 -18 2.64 -18 4 C-16.42798828 3.44119141 -16.42798828 3.44119141 -14.82421875 2.87109375 C-13.44547699 2.39275477 -12.06656157 1.91491617 -10.6875 1.4375 C-9.99720703 1.19064453 -9.30691406 0.94378906 -8.59570312 0.68945312 C-3.33984375 -1.11328125 -3.33984375 -1.11328125 0 0 Z " fill="#F0ACBF" transform="translate(68,72)"/>
<path d="M0 0 C2.5625 0.1875 2.5625 0.1875 4.5625 2.1875 C4.1875 4.8125 4.1875 4.8125 3.5625 7.1875 C1.25 7.8125 1.25 7.8125 -1.4375 8.1875 C-2.4275 7.5275 -3.4175 6.8675 -4.4375 6.1875 C-3.3735 0.2595 -3.3735 0.2595 0 0 Z " fill="#E2DEE7" transform="translate(533.4375,35.8125)"/>
<path d="M0 0 C-2.55180305 3.08342869 -5.24532778 4.01684785 -9 5.25 C-10.5778125 5.78367187 -10.5778125 5.78367187 -12.1875 6.328125 C-15 7 -15 7 -18 6 C-15.44819695 2.91657131 -12.75467222 1.98315215 -9 0.75 C-7.948125 0.39421875 -6.89625 0.0384375 -5.8125 -0.328125 C-3 -1 -3 -1 0 0 Z " fill="#EFABBE" transform="translate(78,46)"/>
<path d="M0 0 C0.103125 0.639375 0.20625 1.27875 0.3125 1.9375 C0.539375 2.618125 0.76625 3.29875 1 4 C1.99 4.33 2.98 4.66 4 5 C4 5.66 4 6.32 4 7 C1.69 7.66 -0.62 8.32 -3 9 C-3.36923077 3.46153846 -3.36923077 3.46153846 -1.5 1.125 C-1.005 0.75375 -0.51 0.3825 0 0 Z " fill="#E9A6BB" transform="translate(49,72)"/>
<path d="M0 0 C1.07694171 2.80004844 0.95876997 4.1911574 0.3125 7.1875 C-0.3371875 8.5796875 -0.3371875 8.5796875 -1 10 C-3.08203125 10.67578125 -3.08203125 10.67578125 -5 11 C-4.55123384 9.35153231 -4.09069512 7.70626545 -3.625 6.0625 C-3.36976562 5.14597656 -3.11453125 4.22945313 -2.8515625 3.28515625 C-2 1 -2 1 0 0 Z " fill="#E1A0B6" transform="translate(52,63)"/>
<path d="M0 0 C0.66 0.33 1.32 0.66 2 1 C1.5 2.8125 1.5 2.8125 0 5 C-2.5863924 6.26152609 -5.25200829 7.15643045 -8 8 C-7.6215602 5.53754926 -7.38916833 4.32479462 -5.44140625 2.69921875 C-3.65871658 1.73930893 -1.82979783 0.86674634 0 0 Z " fill="#E9A6BB" transform="translate(81,86)"/>
<path d="M0 0 C2.125 0.9375 2.125 0.9375 4 2 C3.67 3.32 3.34 4.64 3 6 C1.35 5.67 -0.3 5.34 -2 5 C-2 3.68 -2 2.36 -2 1 C-1.34 0.67 -0.68 0.34 0 0 Z " fill="#3B1955" transform="translate(63,59)"/>
<path d="M0 0 C0.33 0.66 0.66 1.32 1 2 C-0.43344 2.53190541 -1.87195367 3.05015258 -3.3125 3.5625 C-4.51326172 3.99755859 -4.51326172 3.99755859 -5.73828125 4.44140625 C-8 5 -8 5 -11 4 C-7.20307814 1.17438373 -4.81430721 -0.56638908 0 0 Z " fill="#F7B1C3" transform="translate(58,26)"/>
</svg>
