<?xml version="1.0" encoding="UTF-8"?>
<svg version="1.1" xmlns="http://www.w3.org/2000/svg" width="225" height="238">
<path d="M0 0 C74.25 0 148.5 0 225 0 C225 78.54 225 157.08 225 238 C150.75 238 76.5 238 0 238 C0 159.46 0 80.92 0 0 Z " fill="#020202" transform="translate(0,0)"/>
<path d="M0 0 C4.16483519 0.33318682 6.1070728 2.83548475 8.875 5.75 C12.43644676 9.42735183 15.98505388 12.8303057 20 16 C23.02467811 14.62818803 25.28886209 13.03464311 27.75 10.8125 C28.43578125 10.19890625 29.1215625 9.5853125 29.828125 8.953125 C30.54484375 8.30859375 31.2615625 7.6640625 32 7 C33.4981045 5.68533687 34.99802207 4.37273607 36.5 3.0625 C37.1703125 2.47597656 37.840625 1.88945313 38.53125 1.28515625 C39.0159375 0.86105469 39.500625 0.43695313 40 0 C40.56976563 0.30035156 41.13953125 0.60070312 41.7265625 0.91015625 C43.92260523 1.96289838 46.051977 2.71614023 48.375 3.4375 C52.11281569 4.66493453 55.60935168 5.96561101 59 8 C59.495 9.485 59.495 9.485 60 11 C62.01818873 12.40413909 62.01818873 12.40413909 64.5 13.6875 C79.00022054 22.09762791 85.72558578 33.09441082 90 49 C90.87010583 54.10173855 91.17778771 58.84415648 91 64 C89.28364662 65.71635338 87.02853533 65.1261073 84.6854248 65.12698364 C83.5327562 65.12980347 82.38008759 65.13262329 81.19248962 65.13552856 C79.91660477 65.13350433 78.64071991 65.1314801 77.32617188 65.12939453 C75.97790988 65.13074856 74.62964825 65.1325285 73.28138733 65.13470459 C69.60999972 65.13927873 65.93864009 65.13748945 62.26725197 65.1343255 C58.43333483 65.1318018 54.59942016 65.13413947 50.76550293 65.13571167 C44.32592334 65.13753334 37.8863552 65.13512713 31.44677734 65.13037109 C23.99127837 65.12492848 16.53580674 65.12669114 9.08030844 65.1321975 C2.69051424 65.13672871 -3.6992717 65.13737914 -10.08906698 65.13475883 C-13.91038048 65.1331961 -17.7316811 65.13300217 -21.55299377 65.13629532 C-25.14473825 65.13917416 -28.73644731 65.13719812 -32.32818794 65.13140106 C-34.28295467 65.12943793 -36.23772437 65.13242727 -38.19248962 65.13552856 C-39.34515823 65.13270874 -40.49782684 65.12988892 -41.6854248 65.12698364 C-42.6934893 65.12660662 -43.7015538 65.12622959 -44.74016571 65.12584114 C-47 65 -47 65 -48 64 C-49.37052206 49.91283063 -45.69260866 37.13203638 -37 26 C-31.57569126 19.62794958 -25.56905064 14.64859719 -18 11 C-17.34 11 -16.68 11 -16 11 C-15.93425781 10.38382813 -15.86851563 9.76765625 -15.80078125 9.1328125 C-15 7 -15 7 -12.85546875 5.8046875 C-11.97503906 5.49789062 -11.09460938 5.19109375 -10.1875 4.875 C-4.69447143 3.15051273 -4.69447143 3.15051273 0 0 Z " fill="#E9E9E9" transform="translate(92,121)"/>
<path d="M0 0 C7.98664621 4.40152946 14.30012904 10.92278717 17.63671875 19.453125 C18.44921875 22.953125 18.44921875 22.953125 18.63671875 26.453125 C18.68699219 27.14019531 18.73726563 27.82726562 18.7890625 28.53515625 C19.25425417 39.16013405 15.59021128 46.6322835 8.63671875 54.453125 C7.76853516 55.32710937 7.76853516 55.32710937 6.8828125 56.21875 C2.3120281 60.9327156 1.6628704 64.95444086 1.63671875 71.453125 C2.29671875 71.453125 2.95671875 71.453125 3.63671875 71.453125 C3.63671875 73.103125 3.63671875 74.753125 3.63671875 76.453125 C2.97671875 76.453125 2.31671875 76.453125 1.63671875 76.453125 C1.48203125 77.3503125 1.48203125 77.3503125 1.32421875 78.265625 C0.53676547 80.77115815 -0.37231986 81.78071743 -2.36328125 83.453125 C-5.98281166 85.26289021 -10.18996423 84.72349163 -14.17578125 84.765625 C-15.07876953 84.79462891 -15.98175781 84.82363281 -16.91210938 84.85351562 C-21.18215823 84.89430228 -23.71970779 84.81618699 -27.5 82.68359375 C-29.36328125 80.453125 -29.36328125 80.453125 -29.36328125 76.453125 C-30.02328125 76.453125 -30.68328125 76.453125 -31.36328125 76.453125 C-31.36328125 75.133125 -31.36328125 73.813125 -31.36328125 72.453125 C-30.70328125 72.453125 -30.04328125 72.453125 -29.36328125 72.453125 C-29.67778342 64.49622022 -30.9224742 59.80570623 -36.80078125 54.078125 C-44.07847889 46.62292253 -46.78171271 38.89747292 -46.72680664 28.6171875 C-46.50299022 19.87939449 -43.74782574 12.73450608 -37.66015625 6.34765625 C-26.51795806 -2.84276233 -13.60034908 -5.63868487 0 0 Z " fill="#070707" transform="translate(127.36328125,40.546875)"/>
<path d="M0 0 C7.98664621 4.40152946 14.30012904 10.92278717 17.63671875 19.453125 C18.44921875 22.953125 18.44921875 22.953125 18.63671875 26.453125 C18.68699219 27.14019531 18.73726563 27.82726562 18.7890625 28.53515625 C19.25425417 39.16013405 15.59021128 46.6322835 8.63671875 54.453125 C7.76853516 55.32710937 7.76853516 55.32710937 6.8828125 56.21875 C2.3120281 60.9327156 1.6628704 64.95444086 1.63671875 71.453125 C2.29671875 71.453125 2.95671875 71.453125 3.63671875 71.453125 C3.63671875 73.103125 3.63671875 74.753125 3.63671875 76.453125 C2.97671875 76.453125 2.31671875 76.453125 1.63671875 76.453125 C1.48203125 77.3503125 1.48203125 77.3503125 1.32421875 78.265625 C0.53676547 80.77115815 -0.37231986 81.78071743 -2.36328125 83.453125 C-5.98281166 85.26289021 -10.18996423 84.72349163 -14.17578125 84.765625 C-15.07876953 84.79462891 -15.98175781 84.82363281 -16.91210938 84.85351562 C-21.18215823 84.89430228 -23.71970779 84.81618699 -27.5 82.68359375 C-29.36328125 80.453125 -29.36328125 80.453125 -29.36328125 76.453125 C-30.02328125 76.453125 -30.68328125 76.453125 -31.36328125 76.453125 C-31.36328125 75.133125 -31.36328125 73.813125 -31.36328125 72.453125 C-30.70328125 72.453125 -30.04328125 72.453125 -29.36328125 72.453125 C-29.67778342 64.49622022 -30.9224742 59.80570623 -36.80078125 54.078125 C-44.07847889 46.62292253 -46.78171271 38.89747292 -46.72680664 28.6171875 C-46.50299022 19.87939449 -43.74782574 12.73450608 -37.66015625 6.34765625 C-26.51795806 -2.84276233 -13.60034908 -5.63868487 0 0 Z M-36.89453125 11.4921875 C-41.94511862 18.23525893 -44.0356673 26.11553798 -43.36328125 34.453125 C-41.56209826 42.37589612 -38.09529443 47.31276958 -32.4921875 53.08203125 C-29.60331347 56.29954783 -28.04956133 59.49403264 -26.36328125 63.453125 C-24.38328125 63.453125 -22.40328125 63.453125 -20.36328125 63.453125 C-20.36328125 57.513125 -20.36328125 51.573125 -20.36328125 45.453125 C-23.00328125 44.793125 -25.64328125 44.133125 -28.36328125 43.453125 C-30.82652194 39.75826397 -30.75319813 37.82019408 -30.36328125 33.453125 C-29.23828125 31.515625 -29.23828125 31.515625 -27.36328125 30.453125 C-23.79256683 29.92131647 -22.06572794 29.97849886 -19.05078125 32.015625 C-16.89530991 35.12908361 -16.65047615 37.71959136 -16.36328125 41.453125 C-15.04328125 41.453125 -13.72328125 41.453125 -12.36328125 41.453125 C-12.23953125 39.844375 -12.23953125 39.844375 -12.11328125 38.203125 C-11.29694791 34.1214583 -10.77948848 32.76137313 -7.36328125 30.453125 C-4.02065673 29.96565892 -2.06885633 30.13747299 1.01171875 31.515625 C2.63671875 33.453125 2.63671875 33.453125 3.07421875 36.953125 C2.63671875 40.453125 2.63671875 40.453125 1.63671875 42.328125 C-0.36328125 43.453125 -0.36328125 43.453125 -8.36328125 44.453125 C-8.36328125 51.053125 -8.36328125 57.653125 -8.36328125 64.453125 C-6.38328125 64.453125 -4.40328125 64.453125 -2.36328125 64.453125 C-2.06035156 63.77765625 -1.75742188 63.1021875 -1.4453125 62.40625 C1.02185236 57.15308667 2.94987132 53.96826057 7.63671875 50.453125 C13.99009236 41.86600044 15.88528955 34.1390913 14.63671875 23.453125 C11.95851378 14.7565963 7.35409027 9.13280773 -0.36328125 4.453125 C-1.41515625 3.81375 -2.46703125 3.174375 -3.55078125 2.515625 C-16.41962646 -1.07077448 -27.82106346 1.69113031 -36.89453125 11.4921875 Z " fill="#E7E7E7" transform="translate(127.36328125,40.546875)"/>
<path d="M0 0 C10.36059232 3.65887585 17.54356907 11.61205933 22.40625 21.22265625 C25.80129268 28.7062891 27 36.83131172 27 45 C16.11 45 5.22 45 -6 45 C-4 40 -4 40 -2 37 C-2.21696557 32.00979179 -3.93341881 29.7821168 -7 26 C-6 23 -6 23 -3.0625 21.3125 C0 20 0 20 2 20 C1.855625 18.97519531 1.71125 17.95039063 1.5625 16.89453125 C1.37482375 15.53387846 1.18733358 14.17320001 1 12.8125 C0.90460938 12.13896484 0.80921875 11.46542969 0.7109375 10.77148438 C0.21675387 7.15335423 -0.11346131 3.65203599 0 0 Z " fill="#050505" transform="translate(152,137)"/>
<path d="M0 0 C-0.33 6.27 -0.66 12.54 -1 19 C1.97 20.65 4.94 22.3 8 24 C7.55527344 24.60328125 7.11054687 25.2065625 6.65234375 25.828125 C6.08644531 26.62734375 5.52054688 27.4265625 4.9375 28.25 C4.36902344 29.03890625 3.80054687 29.8278125 3.21484375 30.640625 C1.57814826 33.18186252 1.57814826 33.18186252 3 37 C4.32 39.64 5.64 42.28 7 45 C-3.89 45 -14.78 45 -26 45 C-26 29.55754202 -22.20841558 18.34406513 -11.5 7.1875 C-3.96148256 0 -3.96148256 0 0 0 Z " fill="#050505" transform="translate(74,137)"/>
<path d="M0 0 C3.26296197 0.22503186 4.04203745 1.04787598 6.25 3.5625 C6.8275 4.366875 7.405 5.17125 8 6 C6.906875 5.979375 5.81375 5.95875 4.6875 5.9375 C1.05615809 5.81455548 1.05615809 5.81455548 -2 7 C-1.505 10.96 -1.505 10.96 -1 15 C-3.375 14.8125 -3.375 14.8125 -6 14 C-7.3125 11.4375 -7.3125 11.4375 -8 9 C-9.65 9.33 -11.3 9.66 -13 10 C-12.979375 10.98097656 -12.95875 11.96195313 -12.9375 12.97265625 C-12.9375 17.18167961 -13.43595955 21.27198503 -14 25.4375 C-14.09539062 26.16904297 -14.19078125 26.90058594 -14.2890625 27.65429688 C-14.52205938 29.436723 -14.76046266 31.21844104 -15 33 C-10.05 35.475 -10.05 35.475 -5 38 C-5.92112275 41.68449101 -6.36812907 42.70782092 -8.625 45.4375 C-10.70103006 48.2040887 -10.70103006 48.2040887 -11 51.625 C-9.89283905 54.25450725 -8.50465632 56.57946592 -7 59 C-7 59.66 -7 60.32 -7 61 C-3.37 61 0.26 61 4 61 C4 61.99 4 62.98 4 64 C-13.16 64 -30.32 64 -48 64 C-48 46.33923953 -44.87783792 34.11011971 -32.6875 21.1875 C-22.02360612 11 -22.02360612 11 -16 11 C-15.93425781 10.38382813 -15.86851563 9.76765625 -15.80078125 9.1328125 C-15 7 -15 7 -12.85546875 5.8046875 C-11.97503906 5.49789062 -11.09460938 5.19109375 -10.1875 4.875 C-4.69447143 3.15051273 -4.69447143 3.15051273 0 0 Z M-31.1953125 25.08203125 C-36.32506805 30.49460602 -39.31336569 36.08218858 -42 43 C-42.433125 43.969375 -42.86625 44.93875 -43.3125 45.9375 C-44.41339997 50.84150897 -44 55.97393944 -44 61 C-33.11 61 -22.22 61 -11 61 C-13.475 56.545 -13.475 56.545 -16 52 C-15.12182324 48.48729297 -14.34712949 46.68789152 -12.4375 43.75 C-11.633125 42.5125 -10.82875 41.275 -10 40 C-12.97 38.35 -15.94 36.7 -19 35 C-18.67 28.73 -18.34 22.46 -18 16 C-22.91627472 16 -27.81031359 21.87170311 -31.1953125 25.08203125 Z " fill="#EBEBEB" transform="translate(92,121)"/>
<path d="M0 0 C5.875 1.875 5.875 1.875 7 3 C8.31690624 10.62267625 9.31603123 18.25723488 9 26 C6.03 27.32 3.06 28.64 0 30 C0.33508678 33.68595462 1.42318251 35.68806225 3.6875 38.5 C5.0390625 40.30859375 5.0390625 40.30859375 6 42 C5.5625 44.5625 5.5625 44.5625 4 47 C3.525625 48.093125 3.05125 49.18625 2.5625 50.3125 C0 53 0 53 -2.70703125 53.37890625 C-5.49518023 53.37532711 -8.22456993 53.25840211 -11 53 C-10.37898859 46.54887819 -9.34695842 40.33322022 -7.96875 34.00390625 C-7.77277222 33.08915024 -7.57679443 32.17439423 -7.37487793 31.23191833 C-6.96347137 29.31634494 -6.54991028 27.40123309 -6.13427734 25.48657227 C-5.49675651 22.54754723 -4.86702659 19.60692915 -4.23828125 16.66601562 C-3.8363929 14.79938106 -3.434065 12.93284107 -3.03125 11.06640625 C-2.84268433 10.18626358 -2.65411865 9.30612091 -2.45983887 8.39930725 C-2.28295532 7.58763596 -2.10607178 6.77596466 -1.92382812 5.93969727 C-1.76918091 5.22515884 -1.61453369 4.51062042 -1.4552002 3.77442932 C-1 2 -1 2 0 0 Z " fill="#141414" transform="translate(141,129)"/>
<path d="M0 0 C2.68147393 2.68147393 3.03264645 5.55600194 3.83984375 9.140625 C4.09127892 10.2185733 4.09127892 10.2185733 4.34779358 11.31829834 C4.88448902 13.62735317 5.41097845 15.93860652 5.9375 18.25 C6.28777353 19.76056473 6.63867855 21.27098318 6.99023438 22.78125 C8.01121241 27.18355668 9.01178191 31.59022998 10 36 C10.15494934 36.69134033 10.30989868 37.38268066 10.46954346 38.0949707 C13 49.45013437 13 49.45013437 13 53 C8.90206884 53.47057583 5.08043068 53.68890388 1 53 C-1.77618455 50.75898355 -2.98647304 48.39070839 -4 45 C-4.22137646 39.46558849 -1.49106679 36.92745014 2 33 C2.33 32.01 2.66 31.02 3 30 C2.113125 29.731875 1.22625 29.46375 0.3125 29.1875 C-2.77775491 28.07967277 -5.22622939 26.72474663 -8 25 C-7.688288 22.47906702 -7.37565098 19.9582543 -7.0625 17.4375 C-6.97548828 16.73302734 -6.88847656 16.02855469 -6.79882812 15.30273438 C-6.24615509 10.86088073 -5.64605404 6.42925336 -5 2 C-3.35 1.34 -1.7 0.68 0 0 Z " fill="#0A0A0A" transform="translate(84,129)"/>
<path d="M0 0 C4.52873901 0.53279282 7.57649071 1.97457318 11 5 C11.375 8.75 11.375 8.75 11 12 C10.01 12.495 10.01 12.495 9 13 C8.5875 13.78375 8.175 14.5675 7.75 15.375 C5.58451384 18.62322923 3.53279775 19.45440098 0 21 C-3.15926361 22.68417789 -3.15926361 22.68417789 -3.9375 25.5 C-5 28 -5 28 -6.75 29.3125 C-9.56388072 30.17229689 -12.07176886 30.0636572 -15 30 C-15.66 30.33 -16.32 30.66 -17 31 C-17 30.01 -17 29.02 -17 28 C-16.34 28 -15.68 28 -15 28 C-15 26.35 -15 24.7 -15 23 C-15.66 23 -16.32 23 -17 23 C-17 19.7 -17 16.4 -17 13 C-16.34 13.66 -15.68 14.32 -15 15 C-10.18136311 12.71748779 -5.69742364 10.02521381 -1.171875 7.20703125 C1 6 1 6 3 6 C3 5.34 3 4.68 3 4 C1.68 3.34 0.36 2.68 -1 2 C-0.67 1.34 -0.34 0.68 0 0 Z " fill="#080808" transform="translate(146,89)"/>
<path d="M0 0 C5.875 1.875 5.875 1.875 7 3 C7.51748777 6.06204789 7.70278267 9.15537733 7.9375 12.25 C8.03095703 13.10980469 8.12441406 13.96960938 8.22070312 14.85546875 C8.66582884 21.06808361 8.66582884 21.06808361 6.80078125 23.6784668 C3.11421105 26.87700642 -0.38179497 27.98399489 -5 29 C-4.65371382 18.88844352 -2.67531402 9.69334708 0 0 Z " fill="#0A0A0A" transform="translate(141,129)"/>
<path d="M0 0 C1.64594164 1.64594164 1.40499765 3.48464702 1.5625 5.75 C1.53576857 10.42131793 1.53576857 10.42131793 -0.609375 12.73828125 C-4.2727798 15.07266889 -7.68993358 16.3661667 -12 17 C-12.66 17.66 -13.32 18.32 -14 19 C-14.9593419 17.72992786 -15.91743294 16.45891081 -16.875 15.1875 C-17.40867188 14.47980469 -17.94234375 13.77210937 -18.4921875 13.04296875 C-19.70814781 11.39543703 -20.86416141 9.70375789 -22 8 C-18.55930376 5.70620251 -17.27709699 5 -13 5 C-12.67 4.01 -12.34 3.02 -12 2 C-8.3609431 -0.76568324 -4.35626011 -0.2142423 0 0 Z " fill="#0E0E0E" transform="translate(156,37)"/>
<path d="M0 0 C2.64 0 5.28 0 8 0 C8.50812114 2.51943396 9.00664534 5.04016873 9.5 7.5625 C9.64308594 8.26697266 9.78617188 8.97144531 9.93359375 9.69726562 C10.80874925 14.21890238 11.14523405 18.39487028 11 23 C6.71 23 2.42 23 -2 23 C-2.2700558 15.1683819 -1.23107719 7.72720775 0 0 Z " fill="#0E0E0E" transform="translate(109,159)"/>
<path d="M0 0 C3.59678466 1.51228446 5.81419979 3.63672547 8.5 6.4375 C11.19579727 9.23946737 13.82172857 11.75353997 17 14 C15.4422692 17.82352106 13.08404742 20.29205593 10 23 C9.01 23 8.02 23 7 23 C5.10654239 20.85010561 3.46324133 18.76172495 1.8125 16.4375 C1.34908203 15.82841797 0.88566406 15.21933594 0.40820312 14.59179688 C-2.63204925 10.3605178 -3.82973509 7.37004549 -3 2 C-2.01 1.34 -1.02 0.68 0 0 Z " fill="#0B0B0B" transform="translate(93,126)"/>
<path d="M0 0 C5.98897964 3.93561519 9.21429906 9.6154421 10.8125 16.5 C10.874375 17.655 10.93625 18.81 11 20 C11.07541016 21.03060547 11.07541016 21.03060547 11.15234375 22.08203125 C11.6208345 32.78235999 7.88659538 40.07529789 1 48 C0.44441406 48.69867188 -0.11117187 49.39734375 -0.68359375 50.1171875 C-3.62812031 53.77398108 -3.62812031 53.77398108 -5 55 C-5.99 55 -6.98 55 -8 55 C-8.33 54.34 -8.66 53.68 -9 53 C-6.34481657 48.77137453 -3.54556083 45.54556083 0 42 C5.90832658 33.89715211 7.2326132 26.96536437 6 17 C4.00530215 11.55435251 1.20621001 6.80931502 -2 2 C-1.34 1.34 -0.68 0.68 0 0 Z " fill="#E6E6E6" transform="translate(135,47)"/>
<path d="M0 0 C3.875 1.875 3.875 1.875 5 3 C4.76090369 9.17794006 2.73866382 12.38342341 -1.0625 16.9375 C-1.53494141 17.52595703 -2.00738281 18.11441406 -2.49414062 18.72070312 C-3.65035367 20.15721024 -4.82348722 21.58007078 -6 23 C-9.76488042 21.27845212 -12.15063897 19.00765886 -15 16 C-13.69113024 13.07299167 -12.33773912 11.12815685 -9.9609375 8.984375 C-9.38085938 8.45585937 -8.80078125 7.92734375 -8.203125 7.3828125 C-7.59984375 6.84398437 -6.9965625 6.30515625 -6.375 5.75 C-5.76398438 5.19570312 -5.15296875 4.64140625 -4.5234375 4.0703125 C-3.02043435 2.7082159 -1.5108532 1.35338399 0 0 Z " fill="#080808" transform="translate(132,126)"/>
<path d="M0 0 C2.33333333 2.33333333 4.66666667 4.66666667 7 7 C8.32 7 9.64 7 11 7 C14.02960236 16.08880708 11.52420232 26.80035028 10 36 C9.01 36 8.02 36 7 36 C6.16099007 31.99871531 5.32491813 27.99682865 4.49145508 23.99438477 C4.20806428 22.63549605 3.92389899 21.27676859 3.63891602 19.91821289 C3.22724512 17.95502576 2.81867547 15.99118913 2.41015625 14.02734375 C2.16402588 12.84906006 1.91789551 11.67077637 1.66430664 10.45678711 C0.9964246 6.98139506 0.47189514 3.50690541 0 0 Z " fill="#0E0E0E" transform="translate(93,146)"/>
<path d="M0 0 C0.56460938 0.32524658 1.12921875 0.65049316 1.7109375 0.9855957 C4.23072997 2.10224862 5.88474874 2.2446944 8.625 2.23046875 C9.49640625 2.22853516 10.3678125 2.22660156 11.265625 2.22460938 C12.16796875 2.21236328 13.0703125 2.20011719 14 2.1875 C14.90234375 2.18685547 15.8046875 2.18621094 16.734375 2.18554688 C20.67209997 2.15933421 24.19377322 2.08896757 28 1 C25.95236176 5.69392154 23.69061159 8.55090435 19.8125 11.875 C18.46091797 13.04675781 18.46091797 13.04675781 17.08203125 14.2421875 C16.39496094 14.82226562 15.70789063 15.40234375 15 16 C10.87582937 14.3383196 7.93445961 11.37661982 4.75 8.375 C4.19570312 7.859375 3.64140625 7.34375 3.0703125 6.8125 C1.7097288 5.54574965 0.35434163 4.27342185 -1 3 C-0.67 2.01 -0.34 1.02 0 0 Z " fill="#090909" transform="translate(99,122)"/>
<path d="M0 0 C1.31157379 3.93472136 0.31188475 6.83277776 -0.65234375 10.73046875 C-0.92081871 11.85609978 -0.92081871 11.85609978 -1.19471741 13.00447083 C-1.76808533 15.40070438 -2.35263686 17.79404902 -2.9375 20.1875 C-3.32821357 21.81167122 -3.71819657 23.43601836 -4.10742188 25.06054688 C-5.06314949 29.04245557 -6.02891583 33.02180976 -7 37 C-7.66 37 -8.32 37 -9 37 C-12.50818622 29.98362756 -13.01506682 17.43055892 -11 10 C-8.25 8.375 -8.25 8.375 -5 7 C-3.06331225 4.78735934 -1.59472007 2.48588716 0 0 Z " fill="#111111" transform="translate(133,145)"/>
<path d="M0 0 C0.99 1.485 0.99 1.485 2 3 C3.19625 2.505 4.3925 2.01 5.625 1.5 C9.21101476 0.14088765 12.13404799 -0.2899464 16 0 C15.42655063 2.86724686 15.1385485 3.8614515 13 6 C12.835 7.155 12.67 8.31 12.5 9.5 C12 13 12 13 10 15 C6.9086614 15.23779528 4.96895056 14.98965019 2 14 C0.19113429 9.23982707 -0.20666253 5.06323209 0 0 Z " fill="#0C0C0C" transform="translate(84,68)"/>
<path d="M0 0 C1.32 0.33 2.64 0.66 4 1 C4.96719191 3.57131508 5.09541336 4.72816194 4.171875 7.359375 C2.61647783 9.97449332 1.28470595 11.97434063 -1 14 C-4.77961543 14.77145575 -8.19843083 14.54791299 -12 14 C-12 12.35 -12 10.7 -12 9 C-11.34 9 -10.68 9 -10 9 C-9.67 8.01 -9.34 7.02 -9 6 C-7.8553125 6.0309375 -7.8553125 6.0309375 -6.6875 6.0625 C-3.89814214 6.12942841 -3.89814214 6.12942841 -1 5 C-0.67 3.35 -0.34 1.7 0 0 Z " fill="#090909" transform="translate(142,168)"/>
<path d="M0 0 C7.59 0 15.18 0 23 0 C23 1.65 23 3.3 23 5 C15.41 5 7.82 5 0 5 C0 3.35 0 1.7 0 0 Z " fill="#232323" transform="translate(102,108)"/>
<path d="M0 0 C3.21043882 1.38188453 5.04936365 2.92421903 7.25 5.625 C7.77078125 6.25664062 8.2915625 6.88828125 8.828125 7.5390625 C9.40820312 8.26222656 9.40820312 8.26222656 10 9 C8.2421875 9.9765625 6.484375 10.953125 4.7265625 11.9296875 C2.8387386 13.00897274 2.8387386 13.00897274 1 15 C-1.62420914 11.63773204 -2.93779792 9.5331607 -3.4375 5.25 C-3.293125 4.1775 -3.14875 3.105 -3 2 C-2.01 1.34 -1.02 0.68 0 0 Z " fill="#111111" transform="translate(93,126)"/>
<path d="M0 0 C2.49361571 1.20381448 4.68143083 2.45428722 7 4 C7.1875 7.625 7.1875 7.625 7 11 C3.37 11 -0.26 11 -4 11 C-4.8125 8.3125 -4.8125 8.3125 -5 5 C-2.5625 2.125 -2.5625 2.125 0 0 Z " fill="#0B0B0B" transform="translate(112,144)"/>
<path d="M0 0 C2.64 0 5.28 0 8 0 C8 2.31 8 4.62 8 7 C7.34 7 6.68 7 6 7 C5.67 8.65 5.34 10.3 5 12 C4.01 12.33 3.02 12.66 2 13 C2 13.66 2 14.32 2 15 C1.34 15 0.68 15 0 15 C0 10.05 0 5.1 0 0 Z " fill="#040404" transform="translate(109,159)"/>
<path d="M0 0 C0.71929687 0.47566406 0.71929687 0.47566406 1.453125 0.9609375 C5.16222106 2.47415767 8.77809202 2.46691411 12.75 2.625 C13.93916016 2.68300781 13.93916016 2.68300781 15.15234375 2.7421875 C17.10119416 2.836108 19.05056451 2.91912822 21 3 C20.40316406 3.28617187 19.80632812 3.57234375 19.19140625 3.8671875 C16.78591414 5.05089781 16.78591414 5.05089781 13.9375 7.125 C11 9 11 9 8 9 C7.67 9.66 7.34 10.32 7 11 C4.36 8.36 1.72 5.72 -1 3 C-0.67 2.01 -0.34 1.02 0 0 Z " fill="#121212" transform="translate(99,122)"/>
<path d="M0 0 C0.33 0.99 0.66 1.98 1 3 C1.66 3 2.32 3 3 3 C3 3.99 3 4.98 3 6 C2.34 6 1.68 6 1 6 C0.87625 7.134375 0.7525 8.26875 0.625 9.4375 C0.315625 11.2009375 0.315625 11.2009375 0 13 C-3.30994713 14.65497356 -6.99123 14.10084335 -10.625 14.0625 C-11.42679687 14.05798828 -12.22859375 14.05347656 -13.0546875 14.04882812 C-15.03649006 14.03703168 -17.01825433 14.01909605 -19 14 C-18.67 13.34 -18.34 12.68 -18 12 C-14.69687383 11.72246461 -11.41548911 11.68448044 -8.1015625 11.63671875 C-4.79771643 11.31494595 -4.79771643 11.31494595 -3.0859375 8.45703125 C-2.72757813 7.64621094 -2.36921875 6.83539063 -2 6 C-3.32 5.67 -4.64 5.34 -6 5 C-6 4.34 -6 3.68 -6 3 C-4.35 3 -2.7 3 -1 3 C-0.67 2.01 -0.34 1.02 0 0 Z " fill="#F5F5F5" transform="translate(127,110)"/>
<path d="M0 0 C7.59 0 15.18 0 23 0 C22.34 1.32 21.68 2.64 21 4 C14.4 4 7.8 4 1 4 C0.67 2.68 0.34 1.36 0 0 Z " fill="#0B0B0B" transform="translate(102,117)"/>
<path d="M0 0 C1.32 0 2.64 0 4 0 C4 5.94 4 11.88 4 18 C2.68 18 1.36 18 0 18 C0 12.06 0 6.12 0 0 Z " fill="#090909" transform="translate(111,86)"/>
<path d="M0 0 C1 3 1 3 -0.14453125 5.8125 C-0.69496094 6.864375 -1.24539062 7.91625 -1.8125 9 C-2.35519531 10.051875 -2.89789063 11.10375 -3.45703125 12.1875 C-5 15 -5 15 -7 18 C-7 17.34 -7 16.68 -7 16 C-7.66 16 -8.32 16 -9 16 C-9.33 17.98 -9.66 19.96 -10 22 C-11.9443556 16.6687024 -9.19812209 11.90574267 -7 7 C-4.79352455 3.72371827 -3.28249441 2.1883296 0 0 Z " fill="#E0E0E0" transform="translate(56,149)"/>
<path d="M0 0 C0.33 0 0.66 0 1 0 C1.33 3.63 1.66 7.26 2 11 C0.35 11.33 -1.3 11.66 -3 12 C-3.99 13.485 -3.99 13.485 -5 15 C-6.65 15 -8.3 15 -10 15 C-9.67 11.04 -9.34 7.08 -9 3 C-8.67 3 -8.34 3 -8 3 C-8 5.97 -8 8.94 -8 12 C-7.34 12 -6.68 12 -6 12 C-6 11.34 -6 10.68 -6 10 C-5.01 9.34 -4.02 8.68 -3 8 C-2.27617533 5.94074861 -2.27617533 5.94074861 -2 4 C-1.34 4 -0.68 4 0 4 C0 2.68 0 1.36 0 0 Z " fill="#1E1E1E" transform="translate(117,162)"/>
<path d="M0 0 C0.99 1.485 0.99 1.485 2 3 C3.19625 2.505 4.3925 2.01 5.625 1.5 C9.21101476 0.14088765 12.13404799 -0.2899464 16 0 C15.6875 1.875 15.6875 1.875 15 4 C14.01 4.66 13.02 5.32 12 6 C11.67 5.01 11.34 4.02 11 3 C10.01 3.66 9.02 4.32 8 5 C5.3125 5.125 5.3125 5.125 3 5 C2.67 6.98 2.34 8.96 2 11 C-0.32590854 7.36576791 -0.16265833 4.22911669 0 0 Z " fill="#1E1E1E" transform="translate(84,68)"/>
<path d="M0 0 C0.99 0.33 1.98 0.66 3 1 C3 2.65 3 4.3 3 6 C2.01 6.33 1.02 6.66 0 7 C-0.12375 7.639375 -0.2475 8.27875 -0.375 8.9375 C-0.58125 9.618125 -0.7875 10.29875 -1 11 C-3.5 12.125 -3.5 12.125 -6 13 C-6.33 13.66 -6.66 14.32 -7 15 C-7.66 13.35 -8.32 11.7 -9 10 C-2.25 6 -2.25 6 0 6 C0 4.02 0 2.04 0 0 Z " fill="#141414" transform="translate(154,151)"/>
<path d="M0 0 C2.625 0.375 2.625 0.375 5 1 C5.625 3.375 5.625 3.375 6 6 C4 8 4 8 0.875 8.125 C-0.548125 8.063125 -0.548125 8.063125 -2 8 C-2.125 5.125 -2.125 5.125 -2 2 C-1.34 1.34 -0.68 0.68 0 0 Z " fill="#141414" transform="translate(121,74)"/>
<path d="M0 0 C2.5 0.125 2.5 0.125 3.5 1.125 C3.54092937 3.45797433 3.54241723 5.79205225 3.5 8.125 C1.19 7.795 -1.12 7.465 -3.5 7.125 C-3.54254356 5.12545254 -3.54080783 3.12458364 -3.5 1.125 C-2.5 0.125 -2.5 0.125 0 0 Z " fill="#0F0F0F" transform="translate(103.5,73.875)"/>
<path d="M0 0 C3.96 0 7.92 0 12 0 C12 1.32 12 2.64 12 4 C8.04 4 4.08 4 0 4 C0 2.68 0 1.36 0 0 Z " fill="#E6E6E6" transform="translate(151,69)"/>
<path d="M0 0 C3.96 0 7.92 0 12 0 C12 1.32 12 2.64 12 4 C8.04 4 4.08 4 0 4 C0 2.68 0 1.36 0 0 Z " fill="#E5E5E5" transform="translate(63,69)"/>
<path d="M0 0 C1.32 0 2.64 0 4 0 C4 3.96 4 7.92 4 12 C2.68 12 1.36 12 0 12 C0 8.04 0 4.08 0 0 Z " fill="#DCDCDC" transform="translate(111,21)"/>
<path d="M0 0 C4.51478398 0.53115106 7.34666857 2.36620292 11 5 C10.67 5.99 10.34 6.98 10 8 C5.49197399 6.74194623 2.5087188 5.09592835 -1 2 C-0.67 1.34 -0.34 0.68 0 0 Z " fill="#E2E2E2" transform="translate(146,89)"/>
<path d="M0 0 C0.515625 0.2475 1.03125 0.495 1.5625 0.75 C1.5625 1.41 1.5625 2.07 1.5625 2.75 C-0.08203125 4.0390625 -0.08203125 4.0390625 -2.25 5.375 C-2.95769531 5.82101563 -3.66539063 6.26703125 -4.39453125 6.7265625 C-6.4375 7.75 -6.4375 7.75 -9.4375 7.75 C-9.4375 6.43 -9.4375 5.11 -9.4375 3.75 C-3.0375 -0.31153846 -3.0375 -0.31153846 0 0 Z " fill="#E2E2E2" transform="translate(79.4375,89.25)"/>
<path d="M0 0 C0.515625 0.2475 1.03125 0.495 1.5625 0.75 C0.45460592 4.07368224 0.07813783 4.36563093 -2.8125 6 C-3.72128906 6.53367187 -3.72128906 6.53367187 -4.6484375 7.078125 C-6.4375 7.75 -6.4375 7.75 -9.4375 6.75 C-9.4375 5.76 -9.4375 4.77 -9.4375 3.75 C-3.0375 -0.31153846 -3.0375 -0.31153846 0 0 Z " fill="#E7E7E7" transform="translate(155.4375,45.25)"/>
<path d="M0 0 C4.51478398 0.53115106 7.34666857 2.36620292 11 5 C10.67 5.99 10.34 6.98 10 8 C5.49197399 6.74194623 2.5087188 5.09592835 -1 2 C-0.67 1.34 -0.34 0.68 0 0 Z " fill="#E6E6E6" transform="translate(70,45)"/>
<path d="M0 0 C0.99 0.33 1.98 0.66 3 1 C2.29445932 4.66881155 0.72264494 7.70450534 -1 11 C-2.32 11 -3.64 11 -5 11 C-4.32902328 6.80639551 -2.1441606 3.59665648 0 0 Z " fill="#E0E0E0" transform="translate(136,27)"/>
<path d="M0 0 C3.33557632 2.9905167 5.15083921 5.93184627 7 10 C5.68 10.33 4.36 10.66 3 11 C2.16121545 9.71186658 1.32913217 8.41936744 0.5 7.125 C0.0359375 6.40570313 -0.428125 5.68640625 -0.90625 4.9453125 C-2 3 -2 3 -2 1 C-1.34 0.67 -0.68 0.34 0 0 Z " fill="#E4E4E4" transform="translate(89,27)"/>
<path d="M0 0 C2.35171131 0.59861742 4.6859378 1.26924352 7 2 C7.33 2.66 7.66 3.32 8 4 C6.02 4.66 4.04 5.32 2 6 C2 6.99 2 7.98 2 9 C0.5 10.6875 0.5 10.6875 -1 12 C-1.6875 10.25 -1.6875 10.25 -2 8 C-0.5625 5.75 -0.5625 5.75 1 4 C-0.32 3.67 -1.64 3.34 -3 3 C-2.01 2.01 -1.02 1.02 0 0 Z " fill="#0E0E0E" transform="translate(149,94)"/>
<path d="M0 0 C0 1.98 0 3.96 0 6 C-3.3 6 -6.6 6 -10 6 C-7.61707123 2.42560684 -4.48712563 0 0 0 Z " fill="#000000" transform="translate(225,232)"/>
<path d="M0 0 C1.32 0.66 2.64 1.32 4 2 C2.75 4.9375 2.75 4.9375 1 8 C-1.1875 8.875 -1.1875 8.875 -3 9 C-3.33 10.32 -3.66 11.64 -4 13 C-4.33 12.34 -4.66 11.68 -5 11 C-4.00390625 8.3984375 -4.00390625 8.3984375 -2.5625 5.375 C-2.08941406 4.37210938 -1.61632813 3.36921875 -1.12890625 2.3359375 C-0.75636719 1.56507813 -0.38382813 0.79421875 0 0 Z " fill="#191919" transform="translate(55,153)"/>
<path d="M0 0 C0.33 0.66 0.66 1.32 1 2 C1.99 2.33 2.98 2.66 4 3 C3.67 5.64 3.34 8.28 3 11 C2.34 11 1.68 11 1 11 C-0.20272819 8.59454362 -0.10071472 7.05003047 -0.0625 4.375 C-0.05347656 3.55773437 -0.04445313 2.74046875 -0.03515625 1.8984375 C-0.02355469 1.27195313 -0.01195313 0.64546875 0 0 Z " fill="#1F1F1F" transform="translate(123,171)"/>
<path d="M0 0 C0 2.64 0 5.28 0 8 C-1.32 7.67 -2.64 7.34 -4 7 C-4.33 5.35 -4.66 3.7 -5 2 C-2 0 -2 0 0 0 Z " fill="#060606" transform="translate(128,166)"/>
<path d="M0 0 C2.475 0.99 2.475 0.99 5 2 C5 3.32 5 4.64 5 6 C4.34 6 3.68 6 3 6 C2.67 6.99 2.34 7.98 2 9 C-1.07692308 4.56923077 -1.07692308 4.56923077 -0.6875 1.6875 C-0.460625 1.130625 -0.23375 0.57375 0 0 Z " fill="#DEDEDE" transform="translate(141,158)"/>
<path d="M0 0 C0.33 0 0.66 0 1 0 C1 2.64 1 5.28 1 8 C-1.64 8.99 -4.28 9.98 -7 11 C-5.94446046 8.44911277 -5.20089325 7.14610418 -2.9375 5.5 C-0.6834192 3.75490519 -0.38148486 2.76576527 0 0 Z " fill="#1A1A1A" transform="translate(149,147)"/>
<path d="M0 0 C0.33 0.66 0.66 1.32 1 2 C2.65 2 4.3 2 6 2 C5.360625 2.226875 4.72125 2.45375 4.0625 2.6875 C1.72806339 3.85250896 1.72806339 3.85250896 1.25 6.625 C1.1675 7.40875 1.085 8.1925 1 9 C0.34 8.01 -0.32 7.02 -1 6 C-1.66 7.32 -2.32 8.64 -3 10 C-3.36923077 3.47692308 -3.36923077 3.47692308 -1.5 1.0625 C-1.005 0.711875 -0.51 0.36125 0 0 Z " fill="#D5D5D5" transform="translate(99,71)"/>
<path d="M0 0 C0.66 0.66 1.32 1.32 2 2 C4.57061311 2.64767793 4.57061311 2.64767793 7 3 C6.67 3.66 6.34 4.32 6 5 C2.37 5 -1.26 5 -5 5 C-5 4.34 -5 3.68 -5 3 C-3.35 2.67 -1.7 2.34 0 2 C0 1.34 0 0.68 0 0 Z " fill="#F8F8F8" transform="translate(105,180)"/>
<path d="M0 0 C1.51953125 1.30078125 1.51953125 1.30078125 3 3 C2.6875 6.1875 2.6875 6.1875 2 9 C1.67 8.34 1.34 7.68 1 7 C0.34 7 -0.32 7 -1 7 C-1.33 8.98 -1.66 10.96 -2 13 C-3.18771723 9.57056481 -2.80226223 7.62215325 -1.5625 4.25 C-1.27503906 3.45078125 -0.98757812 2.6515625 -0.69140625 1.828125 C-0.46324219 1.22484375 -0.23507813 0.6215625 0 0 Z " fill="#C2C2C2" transform="translate(48,158)"/>
<path d="M0 0 C1.09658936 3.28976808 0.79953138 4.71303767 0 8 C-0.33 6.68 -0.66 5.36 -1 4 C-3.46800047 5.15173355 -5.04783565 6.04783565 -7 8 C-7 6.68 -7 5.36 -7 4 C-4.69 2.68 -2.38 1.36 0 0 Z " fill="#1E1E1E" transform="translate(129,162)"/>
<path d="M0 0 C1.65 0 3.3 0 5 0 C5.33 2.31 5.66 4.62 6 7 C4.35 6.67 2.7 6.34 1 6 C0.67 4.02 0.34 2.04 0 0 Z " fill="#D0D0D0" transform="translate(85,129)"/>
<path d="M0 0 C0 0.99 0 1.98 0 3 C-2.97 3 -5.94 3 -9 3 C-9 2.34 -9 1.68 -9 1 C-6.04335481 -0.4783226 -3.25770263 -0.06032783 0 0 Z " fill="#0A0A0A" transform="translate(124,109)"/>
<path d="M0 0 C0.33 0 0.66 0 1 0 C0.67 3.3 0.34 6.6 0 10 C-0.99 10 -1.98 10 -3 10 C-3.3648363 5.74357648 -2.47460354 3.46444495 0 0 Z " fill="#373737" transform="translate(103,172)"/>
<path d="M0 0 C2.5 1.1875 2.5 1.1875 5 3 C5.3125 5.6875 5.3125 5.6875 5 8 C3.02 6.35 1.04 4.7 -1 3 C-0.67 2.01 -0.34 1.02 0 0 Z " fill="#1C1C1C" transform="translate(99,122)"/>
<path d="M0 0 C0.33 0.66 0.66 1.32 1 2 C1.66 2 2.32 2 3 2 C3 3.65 3 5.3 3 7 C1.68 7.33 0.36 7.66 -1 8 C-0.67 5.36 -0.34 2.72 0 0 Z " fill="#E1E1E1" transform="translate(130,161)"/>
<path d="M0 0 C0.66 0 1.32 0 2 0 C1.1875 2.9375 1.1875 2.9375 0 6 C-0.99 6.33 -1.98 6.66 -3 7 C-2.25 2.25 -2.25 2.25 0 0 Z " fill="#EEEEEE" transform="translate(52,155)"/>
<path d="M0 0 C1.32 1.32 2.64 2.64 4 4 C3.01 4.99 2.02 5.98 1 7 C0.01 5.35 -0.98 3.7 -2 2 C-1.34 1.34 -0.68 0.68 0 0 Z " fill="#E7E7E7" transform="translate(135,47)"/>
<path d="M0 0 C0.99 0.33 1.98 0.66 3 1 C3 2.65 3 4.3 3 6 C2.01 6.33 1.02 6.66 0 7 C0 4.69 0 2.38 0 0 Z " fill="#232323" transform="translate(154,151)"/>
<path d="M0 0 C0.66 0 1.32 0 2 0 C2.33 1.65 2.66 3.3 3 5 C1.35 5.33 -0.3 5.66 -2 6 C-1.34 4.02 -0.68 2.04 0 0 Z " fill="#060606" transform="translate(93,71)"/>
<path d="M0 0 C-0.66 1.98 -1.32 3.96 -2 6 C-2.66 6 -3.32 6 -4 6 C-4 5.34 -4 4.68 -4 4 C-4.66 3.67 -5.32 3.34 -6 3 C-2.25 0 -2.25 0 0 0 Z " fill="#040404" transform="translate(151,39)"/>
<path d="M0 0 C1.2065625 0.0309375 1.2065625 0.0309375 2.4375 0.0625 C1.4475 1.5475 1.4475 1.5475 0.4375 3.0625 C-0.5525 3.0625 -1.5425 3.0625 -2.5625 3.0625 C-2.8925 4.3825 -3.2225 5.7025 -3.5625 7.0625 C-3.60504356 5.06295254 -3.60330783 3.06208364 -3.5625 1.0625 C-2.5625 0.0625 -2.5625 0.0625 0 0 Z " fill="#1E1E1E" transform="translate(103.5625,73.9375)"/>
</svg>
